<svg viewBox="0 0 500 500" xmlns="http://www.w3.org/2000/svg">
  <defs></defs>
  <path fill="none" d="M 0 0 L 500 0 L 500 500 L 0 500 L 0 0 Z"></path>
  <path fill="none" d="M 0 0 L 500 0 L 500 500 L 0 500 L 0 0 Z"></path>
  <path d="M 13.335 43.487 L 2.28 70.36 C 1.617 70.999 1.092 71.799 0.705 72.695 C 0.318 73.591 0.097 74.55 0.014 75.542 C -0.041 76.534 0.07 77.526 0.346 78.485 C 0.595 79.445 1.037 80.309 1.59 81.077 C 2.723 82.58 4.353 83.54 6.067 83.7 C 6.951 83.764 7.808 83.636 8.609 83.316 C 9.438 83.028 10.184 82.516 10.848 81.876 L 34.062 69.08 C 34.918 68.6 35.858 68.344 36.825 68.344 C 37.792 68.344 38.732 68.6 39.589 69.08 L 62.803 81.876 C 63.991 82.58 65.373 82.836 66.7 82.612 C 68.026 82.356 69.27 81.652 70.237 80.533 C 71.177 79.445 71.812 78.005 72.006 76.47 C 72.227 74.902 72.006 73.335 71.37 71.959 L 60.316 45.087 C 59.901 44.127 59.68 43.103 59.68 42.047 C 59.68 40.992 59.901 39.936 60.316 39.008 L 71.37 12.136 C 72.006 10.728 72.227 9.161 72.006 7.625 C 71.812 6.057 71.177 4.65 70.237 3.53 C 69.27 2.442 68.026 1.707 66.7 1.483 C 65.373 1.227 63.991 1.483 62.803 2.219 L 38.483 13.415 C 37.627 13.895 36.687 14.151 35.72 14.151 C 34.753 14.151 33.813 13.895 32.956 13.415 L 10.848 0.619 C 9.659 0.011 8.333 -0.149 7.061 0.139 C 5.79 0.427 4.629 1.163 3.718 2.219 C 2.833 3.306 2.225 4.682 2.004 6.153 C 1.811 7.657 2.004 9.161 2.557 10.536 L 13.611 37.409 C 13.998 38.368 14.164 39.424 14.109 40.48 C 14.053 41.536 13.805 42.559 13.335 43.487 Z" fill="#ffd836"></path>
  <path d="M 422.897 450.414 L 431.465 478.566 C 431.879 480.07 432.681 481.382 433.758 482.341 C 434.864 483.269 436.19 483.781 437.544 483.781 C 438.899 483.781 440.225 483.269 441.331 482.341 C 442.436 481.382 443.237 480.07 443.624 478.566 L 451.915 450.414 C 452.274 449.327 452.827 448.367 453.546 447.599 C 454.264 446.831 455.121 446.255 456.06 445.935 L 480.38 436.018 C 481.596 435.474 482.618 434.547 483.365 433.299 C 484.083 432.083 484.47 430.612 484.47 429.14 C 484.47 427.637 484.083 426.197 483.365 424.949 C 482.618 423.734 481.596 422.774 480.38 422.262 L 456.06 412.345 C 455.148 411.961 454.319 411.353 453.601 410.585 C 452.882 409.817 452.302 408.89 451.915 407.866 L 443.624 379.714 C 443.237 378.21 442.436 376.867 441.331 375.939 C 440.225 375.011 438.899 374.499 437.544 374.499 C 436.19 374.499 434.864 375.011 433.758 375.939 C 432.681 376.867 431.879 378.21 431.465 379.714 L 422.897 407.866 C 422.593 408.89 422.096 409.849 421.433 410.617 C 420.742 411.417 419.94 411.993 419.028 412.345 L 394.709 422.262 C 393.521 422.774 392.47 423.734 391.752 424.949 C 391.006 426.197 390.619 427.637 390.619 429.14 C 390.619 430.612 391.006 432.083 391.752 433.299 C 392.47 434.547 393.521 435.474 394.709 436.018 L 419.028 445.935 C 419.968 446.223 420.797 446.799 421.488 447.567 C 422.151 448.367 422.649 449.327 422.897 450.414 Z" fill="#ffd836"></path>
  <path d="M 426.766 46.046 L 137.42 46.046 L 66.119 129.543 L 500.001 129.543 L 426.766 46.046 Z" fill="#ff73fa"></path>
  <path d="M 65.014 129.543 L 281.955 500 L 498.896 129.543 L 65.014 129.543 Z" fill="#ff73fa"></path>
  <path d="M 137.42 46.046 L 65.014 129.543 L 209.825 129.543 L 137.42 46.046 Z" fill="#ffc0ff"></path>
  <path d="M 281.955 46.046 L 209.825 129.543 L 354.361 129.543 L 281.955 46.046 Z" fill="#e655d4"></path>
  <path d="M 426.766 46.046 L 354.361 129.543 L 498.896 129.543 L 426.766 46.046 Z" fill="#ffc0ff"></path>
  <path d="M 354.361 129.543 L 354.361 46.046 L 426.766 46.046 L 354.361 129.543 Z" fill="#ffdef9"></path>
  <path d="M 354.361 129.543 L 281.955 500 L 209.825 129.543 L 354.361 129.543 Z" fill="#ffc0ff"></path>
  <path d="M 354.361 129.543 L 354.361 129.863 L 236.356 266.145 L 229.447 230.635 L 316.5 129.543 L 354.361 129.543 Z" fill="#fff"></path>
  <path d="M 333.634 235.754 L 322.579 292.378 L 256.53 368.837 L 249.345 333.327 L 333.634 235.754 Z" fill="#fff"></path>
  <g fill="#d4e4ff" transform="matrix(27.635809, 0, 0, 31.991127, -72.055847, -142.071045)">
    <path d="m6.04009 14.31h-.01c-.24301 0-.44.197-.44.44v.89c0 .243.19699.44.44.44h.01c.243 0 .44-.197.44-.44v-.89c0-.243-.197-.44-.44-.44z"></path>
    <path d="m6.04009 17.85h-.01c-.24301 0-.44.197-.44.44v.89c0 .243.19699.44.44.44h.01c.243 0 .44-.197.44-.44v-.89c0-.243-.197-.44-.44-.44z"></path>
    <path d="m8.69995 16.98v-.01c0-.243-.19699-.44-.44-.44h-.89c-.243 0-.44.197-.44.44v.01c0 .243.197.44.44.44h.89c.24301 0 .44-.197.44-.44z"></path>
    <path d="m5.1499 16.98v-.01c0-.243-.19699-.44-.44-.44h-.89c-.243 0-.44.197-.44.44v.01c0 .243.197.44.44.44h.89c.24301 0 .44-.197.44-.44z"></path>
  </g>
</svg>