<svg viewBox="0 0 500 500" xmlns="http://www.w3.org/2000/svg">
  <defs></defs>
  <path fill="#faa61a" d="M 462.137 157.88 C 470.8 152.372 481.749 152.931 489.886 159.317 C 497.986 165.782 501.698 176.718 499.261 187.175 L 449.276 400.022 C 446.463 411.876 436.451 420.177 424.977 420.177 L 75.007 420.177 C 63.533 420.177 53.521 411.876 50.746 400.022 L 0.724 187.175 C -1.676 176.718 1.998 165.782 10.098 159.317 C 18.273 152.931 29.222 152.372 37.884 157.88 L 142.466 224.692 L 229.237 86.119 C 229.799 85.201 230.624 84.563 231.449 83.924 C 231.974 83.565 232.462 83.166 232.912 82.727 L 208.838 57.064 C 204.001 51.915 204.001 43.414 208.838 38.265 L 241.161 3.862 C 246.036 -1.287 253.986 -1.287 258.86 3.862 L 291.184 38.265 C 296.021 43.414 296.021 51.915 291.184 57.064 L 267.11 82.727 C 267.56 83.206 268.047 83.565 268.572 83.964 C 269.397 84.563 270.222 85.201 270.785 86.119 L 357.555 224.692 L 462.137 157.88 Z M 49.996 446.798 L 449.988 446.798 L 449.988 500 L 49.996 500 L 49.996 446.798 Z"></path>
</svg>