<svg viewBox="0 0 500 500" xmlns="http://www.w3.org/2000/svg">
  <defs></defs>
  <path d="M 397.883 221.631 C 317.297 173.772 184.374 169.372 107.445 192.72 C 95.088 196.468 82.026 189.496 78.284 177.142 C 74.54 164.78 81.507 151.725 93.867 147.97 C 182.181 121.163 328.979 126.341 421.752 181.412 C 432.866 188.009 436.507 202.36 429.921 213.452 C 423.329 224.562 408.966 228.229 397.881 221.631 M 395.244 292.512 C 389.591 301.689 377.595 304.565 368.432 298.933 C 301.251 257.635 198.803 245.67 119.318 269.797 C 109.012 272.909 98.124 267.101 94.993 256.812 C 91.888 246.513 97.7 235.639 107.991 232.504 C 198.788 204.949 311.667 218.294 388.83 265.716 C 397.993 271.358 400.878 283.36 395.244 292.512 M 364.652 360.587 C 360.174 367.944 350.574 370.264 343.228 365.772 C 284.521 329.893 210.629 321.789 123.605 341.666 C 115.221 343.586 106.866 338.338 104.953 329.952 C 103.025 321.562 108.274 313.199 116.669 311.294 C 211.9 289.526 293.586 298.894 359.482 339.159 C 366.829 343.646 369.147 353.242 364.655 360.587 M 249.996 0 C 111.932 0 0 111.926 0 249.997 C 0 388.079 111.932 500 249.999 500 C 388.073 500 500 388.079 500 249.997 C 500 111.929 388.074 0 249.999 0" fill="#1ed660" style=""></path>
</svg>